<svg xmlns="http://www.w3.org/2000/svg" viewBox="0 0 128 128"><defs><linearGradient id="mmd" x1="10" y1="15" x2="118" y2="112" gradientUnits="userSpaceOnUse"><stop offset="0" stop-color="#48c9d0"/><stop offset="1" stop-color="#47bf4b"/></linearGradient></defs><rect width="128" height="128" rx="22" fill="#0d1429"/><g fill="none" stroke="url(#mmd)" stroke-width="7.5" stroke-linejoin="miter" stroke-linecap="butt"><path d="M17 21v25c0 5 2 9 6 13l41 42 41-42c4-4 6-8 6-13V21L64 69Z"/><path d="M17 54v30c0 5 2 9 6 13l18 18h46l18-18c4-4 6-8 6-13V54L64 104Z"/><path d="M17 92v19c0 3 2 5 5 5h18Z"/><path d="M111 92v19c0 3-2 5-5 5H88Z"/></g></svg>