<svg xmlns="http://www.w3.org/2000/svg" viewBox="0 0 2048 202" width="2048" height="202"><path fill="#f6f8fb" fill-rule="evenodd" d="M1769 35L1769 166L1805 165L1806 77L1966 166L1994 166L1994 35L1958 35L1957 124L1799 36ZM1435 35L1435 166L1470 166L1471 35ZM933 35L933 166L1145 166L1145 140L969 139L970 112L1136 112L1136 88L970 88L970 62L1145 62L1145 35ZM674 35L674 166L805 166L850 162L867 158L882 151L892 143L903 125L907 107L907 94L903 76L890 57L867 44L830 36ZM710 66L819 65L844 69L860 77L866 84L870 96L869 110L866 118L859 126L836 134L815 136L711 136ZM324 36L325 166L362 166L363 81L443 155L456 154L532 82L533 165L571 166L571 35L541 35L536 37L449 119L361 38L353 35ZM47 35L48 166L85 165L86 82L165 155L179 154L255 82L256 165L294 165L294 35L260 36L171 119L85 39L75 35ZM1504 86L1503 115L1511 136L1529 153L1549 161L1579 167L1635 169L1676 166L1739 154L1739 91L1586 91L1586 114L1702 115L1702 132L1700 134L1665 139L1595 140L1571 137L1549 127L1543 119L1539 108L1539 97L1543 86L1551 76L1564 68L1594 62L1630 61L1671 63L1730 70L1734 43L1700 37L1657 33L1604 33L1572 37L1544 45L1528 53L1513 67ZM1174 66L1174 89L1180 99L1193 106L1229 111L1348 113L1363 115L1370 122L1369 130L1360 137L1328 141L1242 140L1180 132L1176 158L1211 164L1256 168L1312 169L1339 167L1371 162L1390 156L1397 151L1406 136L1407 119L1405 110L1396 99L1385 94L1339 88L1223 85L1213 82L1210 78L1211 70L1218 65L1254 60L1321 60L1392 68L1396 45L1393 42L1332 34L1270 33L1236 35L1196 44L1186 49L1179 56Z"/></svg>